<?xml version="1.0" encoding="iso-8859-1"?>
<!-- Generator: Adobe Illustrator 19.0.0, SVG Export Plug-In . SVG Version: 6.00 Build 0)  -->
<svg version="1.1" id="Layer_1" xmlns="http://www.w3.org/2000/svg" xmlns:xlink="http://www.w3.org/1999/xlink" x="0px" y="0px"
	 viewBox="0 0 511.999 511.999" style="enable-background:new 0 0 511.999 511.999;" xml:space="preserve">
<g>
	<g>
		<path d="M106.381,108.519L84.06,43.519c-1.633-4.757-7.686-6.157-11.243-2.601L7.818,105.919
			c-4.285,4.285-1.25,11.612,4.81,11.612h87.32C104.616,117.529,107.897,112.935,106.381,108.519z"/>
	</g>
</g>
<g>
	<g>
		<path d="M219.335,19.742c-1.275-1.275-3.005-1.992-4.81-1.992H131.24c-4.669,0-7.95,4.596-6.433,9.011l21.289,61.997
			c1.633,4.757,7.686,6.157,11.243,2.601l61.997-61.997C221.992,26.705,221.992,22.398,219.335,19.742z"/>
	</g>
</g>
<g>
	<g>
		<path d="M231.694,473.456l-105.54-307.354c-0.944-2.747-3.529-4.593-6.434-4.593H6.814c-5.462,0-8.696,6.113-5.624,10.628
			l215.325,316.449c3.152,4.631,10.237,3.681,12.056-1.617l3.123-9.095C232.185,476.442,232.185,474.888,231.694,473.456z"/>
	</g>
</g>
<g>
	<g>
		<path d="M505.186,161.512h-113.5c-2.906-0.003-5.49,1.843-6.434,4.59l-105.54,307.354c-0.491,1.432-0.491,2.986,0,4.418
			l4.045,11.781c1.824,5.313,8.937,6.25,12.074,1.592l214.996-319.133C513.87,167.596,510.633,161.512,505.186,161.512z"/>
	</g>
</g>
<g>
	<g>
		<path d="M503.724,105.917l-65.1-65.1c-3.557-3.556-9.61-2.156-11.243,2.601l-22.355,65.102c-1.517,4.416,1.764,9.01,6.433,9.01
			h87.455C504.975,117.529,508.009,110.202,503.724,105.917z"/>
	</g>
</g>
<g>
	<g>
		<path d="M380.166,17.751H295.96c-1.805,0-3.534,0.717-4.81,1.992c-2.656,2.656-2.656,6.963,0,9.62l62.681,62.681
			c3.558,3.556,9.611,2.156,11.244-2.601l21.524-62.681C388.115,22.347,384.834,17.751,380.166,17.751z"/>
	</g>
</g>
<g>
	<g>
		<path d="M305.511,105.917L260.052,60.46c-2.656-2.656-6.963-2.656-9.62,0l-45.457,45.459c-4.285,4.285-1.25,11.611,4.81,11.611
			h90.916C306.761,117.529,309.796,110.202,305.511,105.917z"/>
	</g>
</g>
<g>
	<g>
		<path d="M330.8,161.509H180.605c-4.669,0-7.95,4.596-6.433,9.011l74.638,228.752c2.102,6.123,10.763,6.123,12.867,0
			l75.559-228.752C338.75,166.105,335.47,161.509,330.8,161.509z"/>
	</g>
</g>
<g>
</g>
<g>
</g>
<g>
</g>
<g>
</g>
<g>
</g>
<g>
</g>
<g>
</g>
<g>
</g>
<g>
</g>
<g>
</g>
<g>
</g>
<g>
</g>
<g>
</g>
<g>
</g>
<g>
</g>
</svg>
